<?xml version="1.0" standalone="no"?><!DOCTYPE svg PUBLIC "-//W3C//DTD SVG 1.1//EN" "http://www.w3.org/Graphics/SVG/1.1/DTD/svg11.dtd"><svg t="1644672562465" class="icon" viewBox="0 0 1025 1024" version="1.1" xmlns="http://www.w3.org/2000/svg" p-id="8410" width="16.015625" height="16" xmlns:xlink="http://www.w3.org/1999/xlink"><defs><style type="text/css"></style></defs><path d="M996.602007 0H25.685619C11.986622 0 0 11.986622 0 25.685619v972.628762c0 13.698997 11.986622 25.685619 25.685619 25.685619h972.628762c13.698997 0 25.685619-11.986622 25.685619-25.685619V25.685619C1022.287625 11.986622 1010.301003 0 996.602007 0zM467.478261 171.237458c0-23.973244 20.548495-42.809365 44.521739-42.809364s44.521739 18.83612 44.521739 42.809364v102.742475c0 23.973244-20.548495 42.809365-44.521739 42.809365s-44.521739-18.83612-44.521739-42.809365v-102.742475z m-308.227425 229.458194c-18.83612-15.411371-23.973244-42.809365-8.561873-61.645485 15.411371-18.83612 42.809365-22.26087 63.35786-8.561873l83.906354 63.35786c18.83612 15.411371 23.973244 42.809365 8.561873 61.645485-8.561873 10.274247-22.26087 17.123746-35.959866 17.123746-10.274247 0-18.83612-3.424749-27.397993-8.561873l-83.906355-63.35786zM770.568562 844.200669c0 15.411371-13.698997 27.397993-29.110368 27.397993H282.541806c-15.411371 0-29.110368-11.986622-29.110368-27.397993v-116.441472c0-15.411371 13.698997-27.397993 29.110368-27.397993h39.384615c15.411371 0 29.110368-11.986622 29.110368-27.397993V491.451505c0-73.632107 61.645485-131.852843 136.989967-131.852843h49.658863c75.344482 0 136.989967 59.93311 136.989966 131.852843v181.511706c0 15.411371 13.698997 27.397993 29.110368 27.397993h39.384616c15.411371 0 29.110368 11.986622 29.110367 27.397993v116.441472z m92.468227-443.505017l-83.906354 63.35786c-8.561873 6.849498-17.123746 8.561873-27.397994 8.561873-13.698997 0-27.397993-5.137124-35.959866-17.123746-15.411371-18.83612-11.986622-46.234114 8.561873-61.645485l83.906355-63.35786c18.83612-15.411371 47.946488-11.986622 63.357859 8.561873 15.411371 18.83612 11.986622 46.234114-8.561873 61.645485z" fill="#d81e06" p-id="8411"></path></svg>